<svg width="23" height="23" viewBox="0 0 23 23" fill="none" xmlns="http://www.w3.org/2000/svg">
<path d="M19.9786 14.2367L15.746 12.3401L15.7343 12.3347C15.5146 12.2407 15.2749 12.203 15.0369 12.225C14.799 12.2469 14.5702 12.3279 14.3714 12.4605C14.348 12.476 14.3255 12.4928 14.304 12.5108L12.1172 14.3751C10.7318 13.7021 9.30153 12.2826 8.6286 10.9152L10.4956 8.69514C10.5135 8.67268 10.5306 8.65022 10.5468 8.62596C10.6765 8.42768 10.7553 8.20039 10.7759 7.96433C10.7966 7.72826 10.7586 7.49075 10.6654 7.27291V7.26213L8.76337 3.02241C8.64005 2.73784 8.428 2.50079 8.15889 2.34664C7.88977 2.19249 7.57802 2.1295 7.27016 2.16709C6.05275 2.32729 4.93529 2.92517 4.12647 3.84905C3.31766 4.77294 2.87281 5.95966 2.87501 7.18756C2.87501 14.3212 8.67891 20.1251 15.8125 20.1251C17.0404 20.1273 18.2271 19.6824 19.151 18.8736C20.0749 18.0648 20.6728 16.9473 20.833 15.7299C20.8706 15.4222 20.8078 15.1105 20.6538 14.8414C20.4998 14.5723 20.263 14.3602 19.9786 14.2367ZM15.8125 18.6876C12.7635 18.6842 9.8404 17.4716 7.68446 15.3156C5.52851 13.1597 4.31584 10.2365 4.31251 7.18756C4.30913 6.31023 4.62521 5.46166 5.20172 4.80033C5.77824 4.139 6.57576 3.71013 7.44536 3.59381C7.44501 3.5974 7.44501 3.60101 7.44536 3.60459L9.33208 7.82725L7.47501 10.05C7.45616 10.0717 7.43904 10.0948 7.4238 10.1192C7.2886 10.3266 7.20928 10.5655 7.19354 10.8126C7.1778 11.0598 7.22617 11.3068 7.33395 11.5297C8.14794 13.1945 9.82532 14.8593 11.5081 15.6724C11.7327 15.7792 11.9811 15.8259 12.2291 15.8079C12.4771 15.79 12.7163 15.708 12.9231 15.57C12.9462 15.5544 12.9684 15.5376 12.9896 15.5197L15.1737 13.6563L19.3964 15.5475C19.3964 15.5475 19.4036 15.5475 19.4063 15.5475C19.2914 16.4183 18.8631 17.2175 18.2017 17.7954C17.5402 18.3734 16.6909 18.6905 15.8125 18.6876Z" fill="#757575"/>
</svg>
