<svg width="30" height="30" viewBox="0 0 30 30" fill="none" xmlns="http://www.w3.org/2000/svg">
<rect width="30" height="30" rx="15" fill="#D9D9D9"/>
<path d="M20.729 9.2727H18.0018V8.72725C18.0018 8.29325 17.8294 7.87704 17.5225 7.57016C17.2156 7.26328 16.7994 7.09088 16.3654 7.09088H13.0927C12.6587 7.09088 12.2425 7.26328 11.9356 7.57016C11.6287 7.87704 11.4563 8.29325 11.4563 8.72725V9.2727H8.72905C8.58438 9.2727 8.44565 9.33017 8.34335 9.43246C8.24106 9.53475 8.18359 9.67349 8.18359 9.81815C8.18359 9.96282 8.24106 10.1016 8.34335 10.2038C8.44565 10.3061 8.58438 10.3636 8.72905 10.3636H9.2745V20.1818C9.2745 20.4711 9.38944 20.7486 9.59402 20.9532C9.79861 21.1578 10.0761 21.2727 10.3654 21.2727H19.0927C19.382 21.2727 19.6595 21.1578 19.8641 20.9532C20.0687 20.7486 20.1836 20.4711 20.1836 20.1818V10.3636H20.729C20.8737 10.3636 21.0125 10.3061 21.1147 10.2038C21.217 10.1016 21.2745 9.96282 21.2745 9.81815C21.2745 9.67349 21.217 9.53475 21.1147 9.43246C21.0125 9.33017 20.8737 9.2727 20.729 9.2727ZM12.5472 8.72725C12.5472 8.58258 12.6047 8.44384 12.707 8.34155C12.8093 8.23926 12.948 8.18179 13.0927 8.18179H16.3654C16.5101 8.18179 16.6488 8.23926 16.7511 8.34155C16.8534 8.44384 16.9109 8.58258 16.9109 8.72725V9.2727H12.5472V8.72725ZM19.0927 20.1818H10.3654V10.3636H19.0927V20.1818ZM13.6381 13.0909V17.4545C13.6381 17.5992 13.5807 17.7379 13.4784 17.8402C13.3761 17.9425 13.2373 18 13.0927 18C12.948 18 12.8093 17.9425 12.707 17.8402C12.6047 17.7379 12.5472 17.5992 12.5472 17.4545V13.0909C12.5472 12.9462 12.6047 12.8075 12.707 12.7052C12.8093 12.6029 12.948 12.5454 13.0927 12.5454C13.2373 12.5454 13.3761 12.6029 13.4784 12.7052C13.5807 12.8075 13.6381 12.9462 13.6381 13.0909ZM16.9109 13.0909V17.4545C16.9109 17.5992 16.8534 17.7379 16.7511 17.8402C16.6488 17.9425 16.5101 18 16.3654 18C16.2207 18 16.082 17.9425 15.9797 17.8402C15.8774 17.7379 15.82 17.5992 15.82 17.4545V13.0909C15.82 12.9462 15.8774 12.8075 15.9797 12.7052C16.082 12.6029 16.2207 12.5454 16.3654 12.5454C16.5101 12.5454 16.6488 12.6029 16.7511 12.7052C16.8534 12.8075 16.9109 12.9462 16.9109 13.0909Z" fill="#0075FF"/>
</svg>
