<svg width="30" height="30" viewBox="0 0 30 30" fill="none" xmlns="http://www.w3.org/2000/svg">
<rect width="30" height="30" rx="15" fill="#D9D9D9"/>
<path d="M22.0432 10.4574L18.9968 7.41031C18.8955 7.30898 18.7752 7.2286 18.6428 7.17376C18.5105 7.11892 18.3686 7.0907 18.2253 7.0907C18.082 7.0907 17.9402 7.11892 17.8078 7.17376C17.6754 7.2286 17.5551 7.30898 17.4538 7.41031L9.04634 15.8185C8.9446 15.9194 8.86394 16.0396 8.80904 16.172C8.75414 16.3043 8.72611 16.4463 8.72657 16.5896V19.6367C8.72657 19.926 8.8415 20.2035 9.04609 20.4081C9.25067 20.6126 9.52815 20.7276 9.81748 20.7276H12.8645C13.0078 20.728 13.1498 20.7 13.2822 20.6451C13.4146 20.5902 13.5347 20.5095 13.6357 20.4078L22.0432 12.0003C22.1445 11.899 22.2249 11.7787 22.2797 11.6464C22.3345 11.514 22.3628 11.3721 22.3628 11.2288C22.3628 11.0855 22.3345 10.9437 22.2797 10.8113C22.2249 10.6789 22.1445 10.5587 22.0432 10.4574ZM10.0432 16.3639L15.8175 10.5896L16.9554 11.7276L11.1811 17.5012L10.0432 16.3639ZM9.81748 17.6805L11.7736 19.6367H9.81748V17.6805ZM13.0902 19.411L11.9522 18.273L17.7266 12.4987L18.8645 13.6367L13.0902 19.411ZM19.6357 12.8655L16.5886 9.81849L18.225 8.18212L21.272 11.2285L19.6357 12.8655Z" fill="#0075FF"/>
</svg>
