<svg width="30" height="30" viewBox="0 0 30 30" fill="none" xmlns="http://www.w3.org/2000/svg">
<rect width="30" height="30" rx="15" fill="#D9D9D9"/>
<path d="M9.68593 8.36657C9.63791 8.31243 9.57961 8.26837 9.51443 8.23693C9.44925 8.20549 9.37848 8.18729 9.30621 8.18341C9.23395 8.17952 9.16163 8.19001 9.09345 8.21428C9.02527 8.23855 8.96259 8.2761 8.90903 8.32478C8.85548 8.37345 8.81211 8.43226 8.78146 8.49782C8.7508 8.56337 8.73346 8.63436 8.73044 8.70666C8.72741 8.77897 8.73877 8.85115 8.76386 8.91904C8.78894 8.98692 8.82725 9.04915 8.87656 9.10212L10.1918 10.5493C7.70898 12.073 6.6412 14.4218 6.59404 14.5285C6.56294 14.5984 6.54688 14.6741 6.54688 14.7507C6.54688 14.8272 6.56294 14.9029 6.59404 14.9728C6.61796 15.0268 7.19697 16.3106 8.48417 17.5978C10.1993 19.3123 12.3656 20.2187 14.75 20.2187C15.9754 20.2257 17.1885 19.9734 18.3095 19.4784L19.8134 21.1334C19.8614 21.1875 19.9197 21.2316 19.9849 21.263C20.0501 21.2945 20.1208 21.3126 20.1931 21.3165C20.2654 21.3204 20.3377 21.3099 20.4059 21.2857C20.474 21.2614 20.5367 21.2238 20.5903 21.1752C20.6438 21.1265 20.6872 21.0677 20.7178 21.0021C20.7485 20.9366 20.7658 20.8656 20.7689 20.7933C20.7719 20.721 20.7605 20.6488 20.7354 20.5809C20.7104 20.513 20.6721 20.4508 20.6227 20.3978L9.68593 8.36657ZM12.9214 13.5509L15.7699 16.6852C15.341 16.9109 14.8492 16.9877 14.3719 16.9036C13.8945 16.8195 13.4586 16.5792 13.1326 16.2205C12.8066 15.8618 12.609 15.405 12.5708 14.9218C12.5325 14.4386 12.6559 13.9564 12.9214 13.5509ZM14.75 19.125C12.6459 19.125 10.8077 18.36 9.28603 16.852C8.66144 16.2313 8.13022 15.5232 7.70898 14.75C8.02958 14.1491 9.05292 12.4675 10.9458 11.3744L12.1763 12.7245C11.6999 13.3346 11.4545 14.0935 11.4836 14.867C11.5127 15.6405 11.8142 16.3788 12.335 16.9515C12.8558 17.5241 13.5623 17.8943 14.3296 17.9964C15.0969 18.0985 15.8756 17.9261 16.528 17.5096L17.535 18.6171C16.6463 18.958 15.7018 19.1303 14.75 19.125ZM15.1601 12.6014C15.0176 12.5742 14.8918 12.4915 14.8103 12.3716C14.7287 12.2516 14.6982 12.1041 14.7254 11.9616C14.7526 11.8191 14.8353 11.6932 14.9553 11.6117C15.0753 11.5302 15.2227 11.4996 15.3652 11.5268C16.0622 11.6619 16.6969 12.0188 17.1745 12.5441C17.6521 13.0694 17.9471 13.735 18.0155 14.4417C18.029 14.5861 17.9846 14.7299 17.8921 14.8416C17.7995 14.9532 17.6664 15.0236 17.522 15.0371C17.5049 15.0381 17.4878 15.0381 17.4707 15.0371C17.334 15.0377 17.2021 14.987 17.1008 14.8952C16.9996 14.8033 16.9365 14.6769 16.9238 14.5408C16.8778 14.0707 16.6813 13.6281 16.3635 13.2787C16.0458 12.9293 15.6237 12.6918 15.1601 12.6014ZM22.9039 14.9728C22.8752 15.0371 22.1827 16.5704 20.6234 17.967C20.5702 18.0162 20.5076 18.0543 20.4394 18.0792C20.3713 18.104 20.2989 18.115 20.2264 18.1116C20.1539 18.1082 20.0829 18.0904 20.0173 18.0592C19.9518 18.028 19.8932 17.9841 19.8448 17.9301C19.7964 17.876 19.7592 17.8129 19.7355 17.7443C19.7118 17.6758 19.7019 17.6032 19.7065 17.5308C19.7111 17.4584 19.73 17.3876 19.7622 17.3226C19.7944 17.2576 19.8392 17.1996 19.894 17.1521C20.659 16.4648 21.3016 15.6526 21.7944 14.75C21.3723 13.976 20.8399 13.2674 20.214 12.6466C18.6923 11.1399 16.8541 10.375 14.75 10.375C14.3067 10.3744 13.864 10.4103 13.4266 10.4823C13.3554 10.4949 13.2825 10.4932 13.212 10.4775C13.1415 10.4617 13.0748 10.4321 13.0158 10.3904C12.9568 10.3488 12.9066 10.2958 12.8682 10.2346C12.8298 10.1735 12.8039 10.1053 12.7919 10.034C12.78 9.96276 12.7823 9.88985 12.7988 9.8195C12.8152 9.74915 12.8454 9.68274 12.8876 9.62412C12.9298 9.56551 12.9832 9.51584 13.0448 9.47798C13.1063 9.44013 13.1747 9.41484 13.2461 9.40358C13.7432 9.32151 14.2462 9.28058 14.75 9.28122C17.1344 9.28122 19.3007 10.1877 21.0158 11.9028C22.303 13.19 22.882 14.4745 22.906 14.5285C22.937 14.5984 22.9531 14.6741 22.9531 14.7507C22.9531 14.8272 22.937 14.9029 22.906 14.9728H22.9039Z" fill="#0075FF"/>
</svg>
